<svg width="445px" height="100px" viewBox="0 0 445 100" version="1.1" xmlns="http://www.w3.org/2000/svg" xmlns:xlink="http://www.w3.org/1999/xlink">
<path d="M25.9199887,13.6062029 C25.7202937,13.4065079 25.4826576,13.3114535 25.1974943,13.3114535 L1.96324717,13.3113526 C1.6780839,13.3113526 1.44044785,13.406407 1.2502381,13.6060011 C1.05064399,13.79611 0.955589569,14.0338469 0.955589569,14.3190102 L0.955589569,18.6635624 C0.955589569,18.9487256 1.05064399,19.1864626 1.2502381,19.3860567 C1.44044785,19.5761655 1.68756916,19.6808061 1.97273243,19.6808061 L10.1294512,19.6808061 L10.1290476,49.4458571 C10.1290476,49.6930794 10.2335873,49.9212302 10.4236961,50.1303095 C10.6139059,50.3489751 10.851542,50.4535147 11.1367052,50.4535147 L16.0326134,50.4535147 C16.2798356,50.4535147 16.5079864,50.3489751 16.7170658,50.1303095 C16.9261451,49.9212302 17.0308866,49.6930794 17.0308866,49.4458571 L17.0311893,19.6808061 L25.1973934,19.6808061 C25.4825567,19.6808061 25.7201927,19.5762664 25.9198878,19.3861576 C26.1099966,19.1864626 26.2145363,18.9488265 26.2145363,18.6636633 L26.2145363,14.3191111 C26.2146372,14.0339478 26.1099966,13.7963118 25.9199887,13.6062029 Z" fill="#000000"></path>
<path d="M63.8795986,49.0753265 L47.5380079,13.3590816 C47.3668696,12.9693787 47.0626349,12.7791689 46.6347891,12.7791689 L46.1119898,12.7791689 C45.684144,12.7791689 45.3800102,12.9692778 45.208771,13.3590816 L28.7050227,49.0751247 C28.5242982,49.4268866 28.5338844,49.7406066 28.7334785,50.0257698 C28.9236882,50.3109331 29.2183367,50.4536156 29.6081406,50.4536156 L34.2187846,50.4536156 C34.9603503,50.4536156 35.4736644,50.0923685 35.7588277,49.3603889 L38.3637426,43.5043503 L54.2207778,43.5044512 L56.8255918,49.3604898 C57.1773537,50.0924694 57.6906678,50.4538175 58.3656349,50.4538175 L62.9762789,50.4538175 C63.3660828,50.4538175 63.6607313,50.3112358 63.8604263,50.0259717 C64.0506361,49.7408084 64.0601213,49.4270884 63.8795986,49.0753265 Z M40.9591723,37.7719229 L46.1594161,26.0978878 L46.3210692,26.0978878 L51.6255499,37.7719229 L40.9591723,37.7719229 Z" fill="#000000"></path>
<path d="M79.1094966,13.6254762 C78.9004172,13.4162959 78.6722664,13.3117562 78.4250442,13.3117562 L73.5291361,13.3117562 C73.253458,13.3117562 73.0157211,13.4162959 72.816127,13.6254762 C72.6260181,13.8441417 72.5308628,14.0722925 72.5308628,14.3194138 L72.5304592,49.4461599 C72.5304592,49.6933821 72.6256145,49.9215329 72.8157234,50.1306122 C73.0153175,50.3492778 73.2529535,50.4538175 73.5287324,50.4538175 L78.4246406,50.4538175 C78.6718628,50.4538175 78.9000136,50.3492778 79.109093,50.1306122 C79.3278594,49.9215329 79.4322982,49.6933821 79.4322982,49.4461599 L79.4327018,14.3194138 C79.4327018,14.0722925 79.328263,13.8441417 79.1094966,13.6254762 Z" fill="#000000"></path>
<path d="M114.103146,44.3794161 C113.903451,44.179822 113.665714,44.0846667 113.390137,44.0846667 L99.852551,44.0845658 L99.8528537,14.3195147 C99.8528537,14.0722925 99.7579002,13.8441417 99.5676905,13.6255771 C99.3680964,13.4163968 99.1304603,13.3118571 98.8451961,13.3118571 L93.9682585,13.3118571 C93.6829943,13.3118571 93.4453583,13.4069116 93.2457642,13.6065057 C93.0556553,13.7966145 92.9605,14.0343515 92.9605,14.3195147 L92.9600964,49.4462608 C92.9600964,49.7219388 93.0552517,49.969161 93.2453605,50.1592698 C93.4449546,50.3589649 93.6825907,50.4540193 93.9678549,50.4540193 L113.389935,50.4541202 C113.665512,50.4541202 113.903249,50.3590658 114.102944,50.1593707 C114.293053,49.9692619 114.397593,49.7220397 114.397593,49.4463617 L114.397694,45.0923243 C114.397795,44.8072619 114.293255,44.5695249 114.103146,44.3794161 Z" fill="#000000"></path>
<path d="M153.128133,18.3792063 C149.411222,14.6431236 144.905017,12.7797744 139.600334,12.7797744 C134.295652,12.7797744 129.789548,14.6430227 126.091406,18.3791054 C122.393264,22.105602 120.548885,26.6307778 120.548785,31.9354603 C120.548684,37.240042 122.393062,41.7461463 126.091103,45.4348027 C129.789144,49.1329444 134.295248,50.9867075 139.599931,50.9867075 C144.904714,50.9867075 149.410819,49.1329444 153.127931,45.4349036 C156.845144,41.7463481 158.699008,37.2402438 158.699109,31.9356621 C158.699008,26.6308787 156.845245,22.1058039 153.128133,18.3792063 Z M148.222537,40.5009535 C145.826803,42.887102 142.955796,44.0848685 139.599931,44.0848685 C136.272622,44.0848685 133.411101,42.8964864 131.024952,40.5294093 C128.638804,38.1622313 127.450523,35.2912245 127.450523,31.9354603 C127.450523,28.57011 128.638905,25.6896179 131.025154,23.2844989 C133.411303,20.8793798 136.272824,19.6815125 139.600234,19.6816134 C142.918057,19.6816134 145.789063,20.8794807 148.194283,23.2845998 C150.599503,25.6898197 151.79727,28.5703118 151.79727,31.9356621 C151.797068,35.2628696 150.608686,38.114805 148.222537,40.5009535 Z" fill="#000000"></path>
<path d="M189.367379,35.481737 C191.734557,34.5216066 193.635847,33.0955884 195.071451,31.1942982 C196.506955,29.2930079 197.219964,27.1350102 197.220065,24.720305 C197.220065,21.5736202 196.088796,18.883237 193.826259,16.6492562 C191.563721,14.4246599 188.835296,13.3123617 185.650468,13.3123617 L170.477885,13.3122608 C170.192722,13.3122608 169.955086,13.4073152 169.764876,13.6069093 C169.565282,13.7970181 169.470228,14.0347551 169.470228,14.3199184 L169.469824,49.4466644 C169.469824,49.7223424 169.564879,49.9695646 169.764473,50.1596735 C169.954683,50.3593685 170.192319,50.4544229 170.477482,50.4544229 L175.35452,50.4544229 C175.639684,50.4544229 175.87732,50.3498832 176.076914,50.1312177 C176.267124,49.9221383 176.362178,49.6939875 176.362178,49.4467653 L176.36238,35.9664943 L182.25646,35.9664943 L189.310265,49.9791508 C189.490788,50.2928707 189.776052,50.4545238 190.165755,50.4545238 L195.736731,50.4545238 C196.154991,50.4545238 196.468812,50.2833855 196.65882,49.950695 C196.858414,49.6180045 196.848929,49.2757279 196.639849,48.9144807 L189.367379,35.481737 Z M188.758808,28.6464966 C187.71321,29.7016814 186.486786,30.2340669 185.070354,30.2340669 L176.41919,30.2340669 L176.419291,19.6818152 L185.070455,19.6818152 C186.486887,19.6818152 187.713311,20.185644 188.758909,21.1933016 C189.795224,22.2009592 190.318125,23.4083118 190.318125,24.8248447 C190.318125,26.3078753 189.795224,27.5817256 188.758808,28.6464966 Z" fill="#000000"></path>
<path d="M22.6583707,79.4011179 C25.0064773,78.0511837 27.5543798,75.2467755 27.5543798,71.4060522 C27.5544807,66.158483 23.4096236,62.2036338 17.3064637,62.2036338 L6.36430726,62.2035329 C5.81285034,62.2035329 5.41366213,62.6598345 5.41366213,63.154178 L5.4132585,96.2370522 C5.4132585,96.740881 5.81244671,97.1876973 6.36390363,97.1876973 L17.7623617,97.1877982 C24.2077982,97.1877982 28.6569909,93.1380964 28.6569909,87.5482506 C28.6570918,82.9470918 25.3012268,80.4943447 22.6583707,79.4011179 Z M9.15912925,65.6545533 L17.3063628,65.6545533 C21.1564705,65.6545533 23.304983,68.050288 23.3048821,71.6532744 C23.3048821,75.1517211 21.1562687,77.8991168 17.306161,77.8990159 L9.15892744,77.8990159 L9.15912925,65.6545533 Z M18.1615499,93.8415193 L9.0636712,93.8414184 L9.06377211,81.3497336 L17.306161,81.3497336 C21.203695,81.3497336 24.4550204,83.9450624 24.4550204,87.4910363 C24.4550204,91.0942245 21.8121644,93.8416202 18.1615499,93.8415193 Z" fill="#000000"></path>
<path d="M54.0397506,83.0517324 C58.3938889,81.30261 61.436034,77.4524014 61.436034,72.8512426 C61.4361349,66.9096349 56.5402268,62.2038356 50.5416066,62.2038356 L37.6030045,62.2038356 C37.0516485,62.2038356 36.6523594,62.6601372 36.6523594,63.1544807 L36.6519558,96.2373549 C36.6519558,96.7411837 37.0512449,97.188 37.6026009,97.188 L39.5515193,97.188 C40.0458628,97.188 40.5021644,96.7411837 40.5021644,96.2373549 L40.5022653,83.4985488 L50.0469603,83.4986497 L56.6919909,96.7412846 C56.7965306,96.9409796 57.0437528,97.1881009 57.4904683,97.1881009 L60.0382698,97.1881009 C60.8937596,97.1881009 61.2361372,96.3896236 60.8937596,95.7431122 L54.0397506,83.0517324 Z M40.5975215,80.1996961 L40.5977234,65.8543492 L50.2944853,65.8544501 C54.1446939,65.8544501 57.4909728,69.1056746 57.4908719,72.8988707 C57.4908719,76.9962007 54.144593,80.199898 50.2942834,80.199898 L40.5975215,80.1996961 Z" fill="#000000"></path>
<path d="M97.3709444,95.895381 L82.2842336,62.2610499 C82.1321667,61.9568152 81.8850454,61.7096939 81.4287438,61.7096939 L80.9344002,61.7096939 C80.4780986,61.7096939 80.2308764,61.9569161 80.0788095,62.2610499 L64.8868526,95.8951791 C64.5922041,96.5415896 64.9913923,97.1881009 65.7424433,97.1881009 L67.738788,97.1881009 C68.1856043,97.1881009 68.4897381,96.8934524 68.5848934,96.6367449 L72.2355079,88.3945578 L89.9749637,88.3946587 L93.6728027,96.6369467 C93.7774433,96.8935533 94.0721927,97.1883027 94.5284943,97.1883027 L96.5247381,97.1883027 C97.2757891,97.1883027 97.6750782,96.5417914 97.3709444,95.895381 Z M73.6329694,85.2955011 L80.9341984,68.9061814 L81.3333866,68.9061814 C83.7765476,74.3534456 86.1817676,79.848237 88.6248277,85.295602 L73.6329694,85.2955011 Z" id="XMLID_59_" fill="#000000"></path>
<path d="M130.359269,62.2043401 L128.609944,62.2043401 C128.058689,62.2043401 127.659299,62.6606417 127.659299,63.1549853 L127.658997,89.7924229 C127.61157,89.7924229 127.61157,89.7924229 127.564043,89.7924229 L105.024036,61.7097948 L103.769257,61.7097948 C103.274914,61.7097948 102.818612,62.1090839 102.818612,62.6034274 L102.818209,96.2376576 C102.818209,96.7414864 103.27451,97.1883027 103.768854,97.1883027 L105.518077,97.1883027 C106.069433,97.1883027 106.468722,96.7414864 106.468722,96.2376576 L106.469025,69.0584501 L106.516451,69.0584501 L129.455747,97.6923333 L130.358865,97.6923333 C130.862694,97.6923333 131.30951,97.2930442 131.30951,96.7892154 L131.309914,63.1549853 C131.309914,62.6606417 130.863198,62.2043401 130.359269,62.2043401 Z" id="XMLID_58_" fill="#000000"></path>
<path d="M153.603001,62.204441 L142.404137,62.2043401 C141.909895,62.2043401 141.510605,62.6606417 141.510605,63.1549853 L141.510202,96.2378594 C141.510202,96.7417891 141.909491,97.1885045 142.403734,97.1885045 L153.602598,97.1886054 C163.242347,97.1887063 171.142459,89.3458084 171.142661,79.6491474 C171.142661,70.0570261 163.24265,62.204542 153.603001,62.204441 Z M152.804019,93.7471712 L145.303297,93.7471712 L145.3036,65.6077324 L152.804322,65.6077324 C160.999083,65.6077324 166.94059,71.4542857 166.940489,79.6490465 C166.940489,87.8912336 160.99878,93.7472721 152.804019,93.7471712 Z" id="XMLID_57_" fill="#000000"></path>
<path d="M187.132692,77.6052755 C182.940408,75.8560522 180.392506,73.8976485 180.392607,70.5513696 C180.392607,68.4503844 181.989864,65.0565782 187.28496,65.0565782 C190.336591,65.0565782 193.483276,67.1575635 193.835037,67.3571576 C194.633616,67.8039739 195.127959,67.6043798 195.584261,66.9103413 C195.783956,66.6061066 195.98355,66.2543447 196.183245,65.9596961 C196.782229,65.009051 196.183245,64.4101678 195.87901,64.258 C195.87901,64.258 192.228598,61.7101984 187.332588,61.7100975 C179.385151,61.7100975 176.694667,67.2048889 176.694667,70.6081803 C176.694566,76.3025658 179.993317,78.5461327 185.48821,80.9513526 C191.230223,83.3469864 194.234226,85.4004444 194.234125,88.8418787 C194.234125,91.7984546 191.581783,94.3461553 187.531981,94.3461553 C183.082788,94.3461553 179.441861,90.8477086 179.090099,90.5434739 C178.386575,89.9445907 177.835118,90.3438798 177.340774,90.9902902 C177.093552,91.2945249 176.836946,91.6462868 176.589824,91.9409354 C175.99084,92.8915805 176.49477,93.2908696 176.893958,93.6426315 C177.540469,94.2415147 181.53326,97.6924342 187.436825,97.6925351 C193.283278,97.6925351 198.226915,93.8899546 198.226915,88.699398 C198.226915,82.9004728 193.882464,80.3527721 187.132692,77.6052755 Z" id="XMLID_56_" fill="#000000"></path>
<path d="M265.267628,57.85 C264.793264,58.324263 264.460372,59.0205215 264.793264,59.8479592 C265.267628,59.1517007 265.44916,58.495805 265.267628,57.85 Z" fill="#E23C52"></path>
<path d="M264.792356,59.8456383 C264.46461,59.0231451 264.792356,58.3287029 265.26561,57.8474773 C265.447545,58.4929796 265.26561,59.1475635 264.792356,59.8456383 Z" fill="#E23C52"></path>
<path d="M323.248706,59.6057823 C321.109376,63.3090703 318.445532,66.9820862 317.466734,71.1596372 C317.315272,71.674263 317.174103,72.1485261 317.032732,72.6126984 L319.797585,67.022449 C320.635113,65.1960317 321.795544,63.5007937 322.814705,61.6743764 C324.126396,59.1517007 325.942823,56.9721088 327.295078,54.6310658 C327.405975,54.4393424 327.506983,54.2577098 327.658243,54.0760771 C325.983287,55.710771 324.489863,57.6280045 323.248706,59.6057823 Z" fill="#E23C52"></path>
<path d="M393.247812,36.8310658 C392.087482,35.700907 390.594058,35.2670068 388.919001,35.125737 C387.607311,35.1660998 385.427517,35.2165533 384.115827,35.7513605 C383.278298,36.1045351 382.955396,36.619161 382.773763,37.093424 C382.2995,38.9097506 384.257096,41.6746032 385.75052,42.4717687 C386.265146,42.7845805 386.921042,42.9460317 387.425577,42.7543084 C388.777731,42.2094104 390.271054,42.0277778 391.249853,40.8471655 C391.582947,40.1912698 392.269014,39.8078231 392.743277,39.3335601 C393.06628,39.0005669 393.439636,38.485941 393.439636,37.9814059 C393.580906,37.6484127 393.439636,37.0026077 393.247812,36.8310658 Z" fill="#E23C52"></path>
<path d="M444.649954,52.8651927 C442.833728,52.4111111 441.15857,52.3102041 439.483514,53.6522676 C437.99009,54.8429705 436.355396,55.8924036 434.821609,56.9115646 C432.853821,58.1123583 430.997333,59.1315193 428.706744,60.2010329 C429.039737,59.040602 429.039737,57.8801712 429.039737,56.8711009 L429.039737,52.9357268 C429.039737,51.1294909 428.525111,49.3030737 427.687583,47.6986519 C426.849954,45.7309649 425.538162,43.9650918 423.20721,43.0064751 C421.865146,42.5725748 420.553355,42.0983118 419.211291,42.1285839 C417.203241,42.0074955 415.386915,41.7249558 413.560498,40.7966111 C413.237494,40.9479717 413.237494,41.1296043 413.055963,41.1296043 C412.904602,41.139695 412.904602,41.3213277 412.722868,41.3213277 C408.43432,44.8934365 404.791576,49.0003526 402.097358,53.7934365 C401.986461,53.8337993 401.845091,53.8741621 401.734194,53.9447971 C401.219568,54.287881 400.573662,54.6309649 400.058935,55.4683923 C399.917766,56.124288 396.23466,61.492542 395.397132,62.6630635 C395.074128,63.5005918 395.255862,63.5005918 394.08534,65.1958299 C390.089422,70.8869864 386.588049,74.9535397 382.117766,80.1502517 C381.461871,80.9978707 380.765612,81.8454898 379.786915,82.7031995 L379.786915,81.3712268 C380.765713,76.3965102 381.784874,71.4217937 383.278298,66.618619 C383.45983,65.9324512 383.792924,65.4480975 384.115827,64.9334717 C384.438628,63.4501383 387.940203,53.2888005 388.263105,51.7953764 C388.777731,49.6561474 388.081574,48.3342653 386.113786,47.5875533 L384.630452,46.7903878 C382.955396,45.8216803 380.947346,45.7308639 379.130918,46.7500249 C378.949387,47.2646508 378.949387,47.7691859 378.949387,48.2333583 C378.949387,48.7378934 378.616293,49.4038798 378.293491,49.9185057 C377.889863,51.0083016 376.870702,53.4906145 376.003002,55.6802971 C375.26628,56.4572812 374.580011,57.2342653 373.81332,57.8598889 C372.319795,61.3714535 370.321836,64.7013855 368.313786,68.0414082 C367.153456,70.0595488 365.841563,72.0776893 364.681133,74.2370998 C363.510611,76.3965102 362.531813,78.0816576 361.33112,80.4227007 C360.160599,82.7334717 359.948593,83.7829048 358.818535,85.1451497 C357.617641,86.6183923 356.265587,87.5265556 355.327152,88.0109093 C354.671155,87.8898209 353.974897,87.7283696 353.319001,87.5971905 L352.774204,86.5982109 C352.663105,86.5982109 352.632833,85.9120431 352.663105,84.9433356 C352.663105,84.6507052 352.663105,84.216805 352.703468,83.7122698 C352.73374,83.0563741 352.774204,82.3399342 352.996099,81.5024059 C353.3189,80.4428821 353.752901,79.8878934 354.196791,77.8192993 C355.17559,73.823381 356.527845,69.9990045 356.991916,65.871907 C357.183539,65.3572812 357.365272,64.852746 357.688074,64.3682914 C357.829444,63.8637562 358.011077,63.2078605 358.34407,62.6932347 L362.350079,51.0384728 C362.824342,49.7266814 363.843503,48.5460692 364.499298,47.193915 C365.336927,46.0133027 365.841463,44.7015113 366.497358,43.5309898 C367.809049,41.3614887 369.302473,39.3433481 370.826169,37.1334841 L377.778764,26.4171576 C378.474922,25.4282687 379.130717,24.399017 379.635252,23.4101281 C380.947043,20.5544592 382.622201,17.8804229 384.953052,15.6907404 C385.427315,15.1761145 385.93185,14.5101281 386.264844,13.9955023 C386.920739,13.1478832 387.425274,12.3103549 387.284005,11.1902868 C386.769379,10.8472029 386.446375,10.5243005 385.931749,10.3931213 L383.792621,9.43450454 C381.461568,8.34470862 378.949084,8.08235034 376.466771,8.64742971 C374.468812,9.02078571 372.975388,10.3931213 371.633324,11.7250941 C369.484005,14.0964093 367.334685,16.2760011 365.477995,18.6372256 C364.317565,20.322373 363.005672,21.8359785 361.986511,23.5312166 C360.341828,26.5281553 358.525501,29.5351848 357.183337,32.8550261 C356.345808,34.7218061 355.871646,36.7197653 355.034118,38.5461825 C353.026068,43.0365454 351.865637,47.8699921 350.513483,52.3502642 C350.372112,52.8547993 350.19048,53.1877925 350.039119,53.6620556 L349.020059,53.036432 C346.699197,50.9577472 344.035151,50.2009444 340.86667,50.2816701 C339.383337,50.3119422 337.889913,50.0294025 336.39659,50.5339376 C336.063495,50.725661 335.589333,50.554119 335.155332,50.453212 C335.11507,50.4229399 335.11507,50.4229399 335.084798,50.4229399 L333.732846,50.4535147 C332.05789,51.0085034 330.423196,51.6946712 328.929671,52.8853741 C328.495872,53.2588311 328.061972,53.6321871 327.658243,54.076178 C327.506983,54.2578107 327.405975,54.4394433 327.295078,54.6311667 C325.942823,56.9722098 324.126497,59.1518016 322.814705,61.6744773 C321.795544,63.5008946 320.635113,65.1961327 319.797585,67.0225499 L317.032732,72.6127993 C317.032732,72.6531621 316.99237,72.6935249 316.99237,72.6935249 L312.986361,80.877085 C312.663559,81.5430714 312.148832,82.0576973 311.82593,82.7134921 C311.492937,83.2281179 311.311304,83.8840136 310.514138,84.4088311 C310.655509,82.9254977 310.837142,81.5834342 310.837142,80.2817336 C310.988502,75.9830941 312.148933,71.977085 313.319455,68.0114388 C314.157084,65.4987528 314.994511,63.0266315 315.640316,60.5139456 C315.97341,58.5564501 316.154942,56.3868481 317.315272,54.5503401 C317.971269,53.5614512 317.315272,51.9166667 316.154942,51.4424036 C314.994511,51.1396825 313.642357,50.8571429 312.330566,50.7057823 C311.311405,50.5846939 310.332607,51.0791383 309.676711,51.7854875 C308.980553,52.4514739 308.506189,52.9660998 307.850395,53.4504535 C305.852435,54.9842404 304.359011,56.8611111 303.016948,59.0306122 C302.865587,59.5351474 302.502322,59.8681406 302.179319,60.3827664 C299.848467,62.9054422 298.213773,65.902381 296.205723,68.7681406 C295.549828,69.6157596 294.712299,70.6147392 294.207764,71.6339002 C292.855509,73.4804989 291.876711,75.6298186 290.56502,77.4764172 C290.050395,78.4954773 289.40459,79.4844671 288.233967,80.3421769 C288.233967,79.3734694 288.233967,78.8689342 288.385328,78.3543084 C289.212866,75.1959184 290.050294,71.8861678 291.039183,68.5764172 C291.543718,66.7600907 292.199613,65.0749433 292.714239,63.2586168 C293.551768,60.9276644 294.389195,58.596712 295.186461,56.084127 L295.701087,55.2365079 C296.205622,53.2789116 297.184421,51.5937642 297.699046,49.595805 C298.354942,46.9419501 297.184421,44.8430839 295.367993,43.0772109 C294.863458,42.5827664 294.389195,42.088322 293.370034,42.4414966 C293.037041,42.4515873 292.381145,42.3204082 291.87661,42.1589569 C290.201654,41.543424 288.889762,42.088322 287.729331,43.2689342 C287.870601,45.0751701 287.870601,45.0751701 287.214806,46.3869615 C287.073435,46.9015873 286.891803,47.4061224 286.55881,47.8905771 C285.358117,50.3022551 284.086587,52.683661 283.027063,55.1256111 L282.078638,56.4172211 C278.587255,60.9782188 275.9334,65.9933991 273.087923,71.0083776 C270.252334,75.851915 267.59848,81.048627 264.611632,85.7105317 C264.460372,86.2150669 263.955837,86.4067902 263.622743,86.891144 C262.280679,84.6510079 261.443252,82.5016882 261.624783,80.0395567 C261.806517,79.2020283 261.957878,78.3745907 261.806517,77.5471531 C261.443252,76.0739104 261.624783,74.7318469 261.624783,73.2486145 C261.443252,71.634102 261.806517,70.140678 262.462413,68.647254 C262.56332,68.748161 263.118207,67.8198163 263.562299,67.4161882 C264.339183,64.6311542 265.489624,62.0782063 266.649954,59.575712 C266.458331,59.2830816 266.367414,58.9097256 266.468422,58.4758254 C267.89111,52.1388639 269.505723,46.6697029 272.482481,40.9785465 C272.553217,40.756551 272.623751,39.5254853 272.694385,39.3034898 C272.805484,38.9503152 273.007298,38.6980476 273.249374,38.5365964 C273.420815,37.7898844 273.592559,37.053263 273.794272,36.3166417 C274.167628,34.9543968 274.561166,33.3197029 275.317968,31.9877302 C275.287696,31.9675488 275.257323,31.9675488 275.227051,31.9473673 C275.731586,30.3026837 276.720475,28.9403379 277.406643,27.4469138 C278.183627,25.9030363 278.95052,24.349068 279.616608,22.8051905 C280.504489,22.4015624 281.634748,22.1997483 281.856744,21.5135805 C281.856744,21.190678 281.856744,21.0090454 282.038276,20.6861429 C285.358117,20.4136939 288.69824,20.1916984 292.199714,20.1008821 C293.834408,19.8788866 295.327832,19.5156213 296.669795,18.6478209 C297.002889,18.4964603 297.144058,18.1735578 297.507424,17.658932 C297.002889,17.48739 296.669795,17.3562109 296.488263,17.1745782 C295.832367,17.0433991 295.186562,16.7003152 294.490304,16.5792268 C290.998921,16.0141474 287.53781,15.7416984 284.046325,15.8325147 C284.369329,15.1665283 284.702221,14.5106327 284.883955,13.854737 C285.206756,12.5126735 285.68112,11.2008821 286.377379,10.0303605 C286.518649,9.66709524 286.841551,9.1827415 286.700382,8.859839 C286.518649,7.02333107 286.185756,5.40881859 285.206857,3.77412472 C284.884056,3.27968027 284.369329,2.96686848 284.046426,2.64396599 C282.038376,1.39271882 280.040417,0.757004535 277.709465,0.817548753 C277.05367,0.837730159 276.730667,0.0506553288 275.893239,0.53500907 C275.378613,0.878092971 274.541085,0.757004535 274.066923,0.767095238 C273.411027,2.26051927 273.047762,3.57231066 272.391866,4.7428322 C271.887331,6.09498639 271.231435,7.26550794 270.57554,8.43602948 C270.393806,8.95065533 270.061015,9.28364853 269.919644,9.60655102 L267.407059,16.9324014 C265.076207,17.3157472 262.745255,17.5176621 260.414303,17.9414717 C258.416344,18.3148277 256.600017,18.506551 254.591967,17.9011088 C254.450697,17.9111995 254.268964,17.9111995 254.117704,18.0928322 C253.935971,18.4258254 253.935971,18.5670952 253.794701,19.0817211 C253.431435,19.0918118 253.098543,19.2734444 252.77554,19.4348957 C253.098543,20.7567778 253.098543,20.8980476 253.794701,21.3924921 C255.611027,22.5024694 257.619077,22.7749184 259.576673,22.7244649 L265.4091,22.583195 C263.764315,27.0634671 265.116469,25.5296803 263.623045,30.0099524 C262.785517,32.3409048 262.139712,34.6718571 261.443554,36.9927188 C260.464756,40.3125601 259.627228,43.61222 258.789599,46.9623333 C258.678702,47.3558707 258.567603,47.7594989 258.456807,48.1227642 C257.548543,48.7584785 256.600017,49.4345556 255.732217,50.1106327 L250.051151,54.2579116 C248.376094,53.2185692 247.104766,51.9471406 245.429508,51.0894308 C243.784824,50.403263 242.301491,49.3235578 240.475074,48.6474807 C238.800017,48.1429456 236.802058,48.3750317 234.945368,47.8805873 C235.490266,46.2458934 236.25716,44.9240113 237.346855,43.814034 C237.710221,43.440678 237.891753,42.89578 238.255119,42.3105193 C239.748543,40.110746 241.564769,37.8605193 243.239825,35.6102925 L244.88461,33.4004286 C246.559667,31.1602925 245.974406,29.1522426 244.147989,27.5680023 L242.87656,26.5185692 C241.746401,25.0655079 240.293441,24.1977075 238.618183,23.3399977 C237.528387,22.6134671 236.438692,22.8152812 235.308533,23.602356 C232.362048,25.3076848 229.990732,27.5680023 227.589145,30.0099524 C225.550823,32.0482744 223.552864,34.1168685 222.240972,36.7202698 C221.151176,38.1935125 220.606379,40.0502018 219.688024,41.6949864 C218.557966,43.9250317 218.1946,46.1046236 217.831536,48.4961202 C217.649803,49.4042834 218.013068,50.3326281 218.558067,51.22061 C220.60648,53.9148277 223.552965,55.6504286 226.136185,57.7795669 C226.317717,57.9611995 226.499349,58.1327415 226.680982,58.1327415 C228.315676,58.9904512 230.172466,59.4848957 231.998782,59.4445329 L236.620324,59.3234444 C236.438793,60.8067778 236.438793,62.259839 236.25716,63.924805 C236.25716,65.1861429 235.671798,66.3163016 234.40037,67.0731043 C233.855472,67.628093 233.300483,68.1830816 232.755585,68.5564376 C230.717263,69.9085918 229.445935,71.9267324 227.589145,73.4605193 C223.552864,77.0225374 219.869757,80.9478209 215.793113,84.6914717 C215.61138,84.883195 215.429747,85.0648277 215.429747,85.2464603 C215.066583,86.1546236 214.339951,86.7499751 213.613522,87.4966871 C212.483363,88.7882971 212.30173,90.2716304 212.705358,91.7045102 C213.250256,92.9557574 213.795255,94.2473673 214.88495,95.2968005 C215.611481,96.0031497 216.560007,96.5177755 217.468069,97.0727642 C218.376232,97.5974807 221.332909,97.6983878 222.240972,97.314941 C223.189599,96.7498617 224.097762,96.7296803 225.187457,96.5177755 C227.225779,96.2554172 229.445834,95.6600658 231.080427,94.3482744 C231.998681,93.6015624 232.937218,92.8245782 233.855371,92.2594989 C234.581901,91.5228776 235.308533,90.7761655 235.85333,89.8579116 C236.257059,89.2726508 236.801957,88.7176621 237.346754,88.3443061 C238.618183,87.0426054 239.930075,85.7106327 240.838238,84.2474807 C242.301491,81.825712 243.603091,79.2324014 245.247875,76.8409048 C247.649463,73.3091587 248.739259,69.2728776 250.595948,65.3677755 C250.77748,65.186042 250.77748,64.8228776 250.77748,64.4596122 L251.322378,59.1720839 C253.068069,57.7896576 254.783388,56.2356893 256.640178,54.8129002 C256.054816,57.3961202 255.580654,59.9288866 254.632128,62.3809274 C254.490858,62.7441927 254.309125,63.4000884 254.309125,63.9046236 C253.986323,65.2063243 253.986323,66.5483878 253.471596,67.8601791 C252.815701,69.3536032 252.815701,71.0185692 252.492697,72.5019025 C252.311166,74.1769592 252.634068,75.7914717 251.836902,77.2849966 C251.655169,77.47672 251.655169,77.7995215 251.655169,77.9812551 C251.836902,79.1315952 251.836902,80.1103934 251.322176,81.2707234 C251.140644,81.4624467 251.140644,81.926619 251.140644,82.2898844 C251.322176,85.3877302 251.836802,88.3443061 252.8156,91.4623333 C253.148694,92.4613129 253.653229,93.6015624 254.309024,94.5601791 C255.146653,95.8820612 256.12535,96.9718571 257.477505,97.2947596 C259.626824,98.0414717 261.957878,98.6670952 264.278638,98.1020159 C265.116167,97.9002018 266.104955,97.8800204 267.124116,97.7084785 C268.103015,97.0324014 269.091904,96.4975941 269.929331,95.9728776 L270.433866,93.8336485 C270.6156,93.1777528 270.948492,92.3402245 271.271495,91.643966 C271.92729,89.9991814 272.583287,88.3241247 272.76492,86.5178889 C272.76492,85.1758254 273.269455,84.0053039 273.602448,82.7036032 C273.925249,81.2101791 274.581347,79.8580249 274.914239,78.3746916 C275.237041,77.7087052 275.418774,77.0629002 275.418774,76.3767324 C275.237041,75.2163016 275.600508,74.2375034 275.9334,73.3999751 C276.912198,70.9176621 277.749626,68.5867098 278.920248,66.2456667 L279.384522,65.5494082 C278.920248,66.8914717 278.476257,68.203263 278.082821,69.5554172 C277.093932,73.0468005 276.407764,76.528093 276.256303,80.1405646 C276.074771,81.4826281 276.074771,82.9659615 275.600508,84.136483 C276.074771,85.9225374 276.589397,87.7186825 276.912198,89.3735578 C277.093932,90.2009955 277.426824,90.8367098 278.08272,91.472424 L279.899046,92.9456667 C282.078537,94.5097256 284.742483,94.6308141 286.891803,95.7307007 L288.708129,95.175712 C289.868459,94.6409048 290.88762,93.9648277 291.725249,92.9759388 C292.199512,91.9466871 292.855307,90.9577982 293.369933,89.7872766 C295.549525,85.1152812 297.517313,80.6148277 299.515272,75.7712902 C300.685693,73.2788866 301.846325,70.7562109 303.198278,68.2737971 C304.510069,65.9226633 305.529331,63.5917109 307.486827,61.5533889 C307.345658,62.3909172 307.164025,63.0468129 306.831032,63.8843413 C306.326497,65.8823005 305.670601,68.0316202 305.014705,70.0295794 C304.177177,73.8438651 303.672642,77.6480601 303.521281,81.4421644 C303.521281,83.6116655 303.198278,85.7508946 303.672642,87.7286723 L305.166066,93.107017 C305.529331,94.4288991 306.185227,95.3875159 307.022755,96.3764048 C308.324456,97.6478333 309.999512,98.2936383 311.82593,98.0615522 C312.663559,96.3864955 313.168094,94.7417109 313.975249,93.2482868 C314.883413,91.4118798 315.609943,89.6257245 316.265839,87.809398 C317.719001,89.5046361 319.686587,90.2513481 321.613811,90.9879694 C323.944864,91.7649535 326.275816,91.5227766 328.243503,89.9990805 C330.574557,88.3139331 333.07695,86.5884229 335.226169,84.3987404 C337.557222,82.0375159 340.211077,79.7973798 342.219127,76.971983 C342.541929,76.4573571 343.198026,76.1142732 343.894184,75.4482868 C343.712652,76.1041825 343.712652,76.6087177 343.712652,76.9316202 C343.601553,77.5471531 343.379558,78.5965862 343.12729,79.9083776 C342.582392,82.6328673 342.582392,82.6631395 342.541929,83.0667676 C342.441122,84.3281054 342.582291,85.0142732 342.219127,86.245339 C342.067766,86.7599649 341.926598,87.1938651 341.815499,87.4562234 C341.855862,88.1323005 341.926598,89.1110986 342.108129,90.2614388 C342.40076,92.2795794 342.582392,93.2482868 343.198026,94.4188084 C343.490556,95.0343413 344.297913,96.4167676 345.932607,97.45611 C346.437142,97.7689218 347.092937,98.0817336 347.748933,98.2431848 C348.919354,98.6871757 350.261518,98.9798061 351.431939,99.1311667 C352.59237,99.4237971 353.7528,99.3935249 354.741689,98.5358152 C356.083854,97.2038424 357.577278,96.0131395 358.888968,94.6408039 C359.585328,94.1564501 360.05949,93.3088311 360.422755,92.4713027 C360.63466,91.8557698 360.523662,92.9052029 361.472087,91.5126859 C361.472087,91.5126859 362.713345,92.0172211 362.854615,91.3613254 L365.155295,89.2523685 C366.386361,86.7599649 367.556781,84.2372891 368.757575,81.7549762 C368.646577,82.6227766 368.575841,83.460305 368.495217,84.2877426 C368.131951,86.790237 367.808948,89.2523685 369.151112,91.8557698 C369.806907,93.3189218 370.795796,94.771983 372.319492,95.7507812 C373.308482,96.3764048 374.28728,96.6791259 375.780704,97.1432982 C377.637393,96.9213027 379.130717,96.2250442 380.442609,95.3673345 C381.128878,94.8829807 381.784773,94.1766315 382.299399,93.6922778 C383.278197,92.3300329 384.438527,90.9980601 385.094524,89.4743639 C385.750319,87.9708492 387.102574,86.6388764 387.940001,85.2766315 C390.593856,81.421983 391.431384,79.4139331 393.24761,76.2656338 C394.741135,73.7328673 395.911656,72.0779921 397.071986,69.8883095 C397.798517,69.0305998 398.605773,67.8903503 399.40304,66.6088311 C399.292042,67.0427313 399.332304,67.4463594 399.443402,67.8701689 C399.766204,68.6572438 400.099197,69.3434116 400.422201,69.7974932 C400.755194,70.4735703 401.259729,70.9377426 401.774355,71.603729 L401.077995,72.6027086 C399.443402,75.1354751 398.272881,77.9406905 397.25372,80.6046361 C395.942029,84.10611 396.093289,87.5672211 397.25372,90.8265181 C397.950079,93.1171077 399.443402,94.9233435 401.592621,96.0232302 C404.246577,97.5872891 407.082065,96.8607585 409.412916,94.3078107 C409.412916,93.6620057 409.564378,93.3290125 409.88728,92.9960193 L411.047711,91.9970397 C412.581498,89.7871757 414.397723,87.9405771 416.042609,86.0939785 C418.878197,83.2080374 421.390681,80.1808265 422.702473,76.3564501 C422.884206,76.0234569 423.025274,75.7005544 423.358368,75.3271984 C425.033324,72.9760646 426.193957,70.483661 427.182745,67.8297052 C427.54601,66.8106451 428.020273,66.1445578 429.039434,65.4684807 C432.167552,63.3998866 435.184672,61.3413832 438.686045,59.7773243 C440.502372,58.7480726 442.137066,57.375737 443.812223,56.0336735 C444.46822,55.5089569 445.487381,54.6512472 444.649954,52.8651927 Z M278.678071,23.5012472 C278.708344,23.4608844 278.728424,23.4205215 278.768888,23.3902494 C278.627719,23.642517 278.567074,23.7232426 278.678071,23.5012472 Z M265.267628,57.85 C265.44916,58.495805 265.267628,59.1517007 264.793264,59.8479592 C264.460271,59.0205215 264.793264,58.324263 265.267628,57.85 Z M229.223536,80.7054422 C228.13374,82.5419501 226.862312,84.2371882 225.55052,85.8920635 C224.460724,87.2240363 223.007663,88.1624717 221.877605,89.272449 C221.332707,89.1109977 221.332707,88.7477324 221.332707,88.5660998 C221.514239,88.0212018 221.514239,87.6579365 221.514239,87.2946712 C221.695973,86.1746032 222.059137,85.2563492 223.189296,84.6912698 C223.734093,84.3179138 224.279092,83.5812925 224.642458,82.8143991 C225.005622,81.7145125 225.732254,80.9778912 226.862413,80.4128118 C227.952209,80.0192744 228.67884,79.2422902 229.223637,78.3240363 C229.808898,77.2241497 230.353796,76.497619 231.453783,75.8921769 C231.261858,77.7387755 230.172062,79.2019274 229.223536,80.7054422 Z M328.572259,80.6952506 C327.74583,81.5006905 326.968745,82.3641519 326.094285,83.1474932 C325.579659,83.6318469 324.923763,83.833661 324.267968,84.3583776 C323.248807,83.0465862 323.430339,81.8861553 323.763433,80.7156338 C324.267968,78.7176746 324.923763,76.7197154 325.579659,74.7520283 C327.073184,70.9175612 328.60687,67.0931848 330.574658,63.3898968 C331.260724,62.2193753 332.239523,61.038763 333.228412,60.0397834 C333.91468,59.3334342 334.237482,59.2400952 335.044738,58.7153787 C335.593571,58.1555465 336.97741,58.0918741 337.353995,58.0300181 C337.73058,57.9681621 339.739438,58.0043878 340.720759,57.9795646 C341.561617,57.7272971 344.841095,58.2739104 347.204035,59.1820737 C345.206076,61.5432982 343.056655,63.7328798 341.230339,66.2657472 C337.557323,70.9781054 333.591778,75.5290125 329.404035,79.928559 C329.118065,80.1746712 328.842588,80.4317823 328.572259,80.6952506 Z M405.740203,87.3249433 C405.740203,87.1836735 405.921735,86.9919501 405.921735,86.8204082 C407.233526,82.3401361 407.919694,79.5046485 410.250646,75.3270975 C411.562438,74.9739229 412.722868,74.802381 413.89339,74.4088435 C414.872188,74.2373016 415.709616,74.0354875 416.728777,73.5410431 C414.731019,77.3856009 408.727051,84.9435374 405.740203,87.3249433 Z M424.044637,59.3131519 L423.025476,62.1486395 C422.702675,63.5007937 422.046678,64.3080499 420.694625,64.8529478 C418.555396,66.0537415 416.406076,67.0829932 414.216393,68.1526077 C414.075224,68.1526077 414.216393,67.9709751 414.216393,67.8297052 L415.89145,65.8015748 C417.203241,63.7834342 416.88044,61.8056565 414.872289,60.5544093 C414.398026,60.2415975 413.74213,59.9287857 413.056063,59.5857018 L412.218434,59.6058832 C410.58374,59.646246 409.090316,60.3727766 408.252889,62.1991939 C407.919795,63.0367222 407.082367,63.7127993 406.577832,64.5503277 C406.577832,62.3909172 407.596993,59.5756111 409.231687,56.5786723 C411.744272,51.8864955 413.560599,49.8582642 417.203342,47.7795794 C417.717867,48.0923912 418.373864,48.2538424 418.878399,48.7482868 C420.553355,50.0096247 422.188049,51.4525952 424.044738,52.7341145 C424.700735,53.3698288 424.851994,54.1972664 424.851994,55.3576973 C424.851994,56.6492063 424.519001,58.0013605 424.044637,59.3131519 Z" fill="#E23C52"></path>
</svg>